<mxfile host="app.diagrams.net" modified="2023-05-26T04:32:59.594Z" agent="Mozilla/5.0 (Windows NT 10.0; Win64; x64) AppleWebKit/537.36 (KHTML, like Gecko) Chrome/113.0.0.0 Safari/537.36 Edg/113.0.1774.50" etag="_aKMMxp7G_ARbXHq-0Cp" version="21.3.3" type="device">
  <diagram name="PÃ¡gina-1" id="H8CsJEVO0hy9qNyGQPVb">
    <mxGraphModel dx="1434" dy="764" grid="1" gridSize="10" guides="1" tooltips="1" connect="1" arrows="1" fold="1" page="1" pageScale="1" pageWidth="827" pageHeight="1169" math="0" shadow="0">
      <root>
        <mxCell id="0" />
        <mxCell id="1" parent="0" />
        <mxCell id="gxTbl_HWMmelDbz9IQ1a-1" value="Pedido" style="rounded=0;whiteSpace=wrap;html=1;" vertex="1" parent="1">
          <mxGeometry x="360" y="750" width="120" height="60" as="geometry" />
        </mxCell>
        <mxCell id="gxTbl_HWMmelDbz9IQ1a-2" value="Empleado" style="rounded=0;whiteSpace=wrap;html=1;" vertex="1" parent="1">
          <mxGeometry x="680" y="560" width="120" height="60" as="geometry" />
        </mxCell>
        <mxCell id="gxTbl_HWMmelDbz9IQ1a-3" value="Producto" style="rounded=0;whiteSpace=wrap;html=1;" vertex="1" parent="1">
          <mxGeometry x="30" y="560" width="120" height="60" as="geometry" />
        </mxCell>
        <mxCell id="gxTbl_HWMmelDbz9IQ1a-4" value="&lt;u&gt;ID producto&lt;/u&gt;" style="ellipse;whiteSpace=wrap;html=1;" vertex="1" parent="1">
          <mxGeometry x="30" y="670" width="60" height="40" as="geometry" />
        </mxCell>
        <mxCell id="gxTbl_HWMmelDbz9IQ1a-6" value="Nombre" style="ellipse;whiteSpace=wrap;html=1;" vertex="1" parent="1">
          <mxGeometry x="80" y="420" width="60" height="40" as="geometry" />
        </mxCell>
        <mxCell id="gxTbl_HWMmelDbz9IQ1a-7" value="Precio" style="ellipse;whiteSpace=wrap;html=1;" vertex="1" parent="1">
          <mxGeometry x="20" y="490" width="60" height="40" as="geometry" />
        </mxCell>
        <mxCell id="gxTbl_HWMmelDbz9IQ1a-8" value="Cantidad&lt;br&gt;Stock" style="ellipse;whiteSpace=wrap;html=1;" vertex="1" parent="1">
          <mxGeometry x="150" y="490" width="60" height="40" as="geometry" />
        </mxCell>
        <mxCell id="gxTbl_HWMmelDbz9IQ1a-9" value="&lt;u&gt;ID empleado&lt;/u&gt;" style="ellipse;whiteSpace=wrap;html=1;" vertex="1" parent="1">
          <mxGeometry x="660" y="470" width="60" height="40" as="geometry" />
        </mxCell>
        <mxCell id="gxTbl_HWMmelDbz9IQ1a-10" value="&lt;u&gt;ID PEDIDO&lt;/u&gt;" style="ellipse;whiteSpace=wrap;html=1;" vertex="1" parent="1">
          <mxGeometry x="360" y="640" width="60" height="40" as="geometry" />
        </mxCell>
        <mxCell id="gxTbl_HWMmelDbz9IQ1a-11" value="" style="endArrow=none;html=1;rounded=0;entryX=1;entryY=0.5;entryDx=0;entryDy=0;strokeWidth=2;" edge="1" parent="1" source="gxTbl_HWMmelDbz9IQ1a-12" target="gxTbl_HWMmelDbz9IQ1a-3">
          <mxGeometry width="50" height="50" relative="1" as="geometry">
            <mxPoint x="330" y="590" as="sourcePoint" />
            <mxPoint x="370" y="600" as="targetPoint" />
          </mxGeometry>
        </mxCell>
        <mxCell id="gxTbl_HWMmelDbz9IQ1a-13" value="" style="endArrow=none;html=1;rounded=0;exitX=0;exitY=0.5;exitDx=0;exitDy=0;strokeWidth=2;" edge="1" parent="1" source="gxTbl_HWMmelDbz9IQ1a-1" target="gxTbl_HWMmelDbz9IQ1a-12">
          <mxGeometry width="50" height="50" relative="1" as="geometry">
            <mxPoint x="360" y="780" as="sourcePoint" />
            <mxPoint x="150" y="590" as="targetPoint" />
          </mxGeometry>
        </mxCell>
        <mxCell id="gxTbl_HWMmelDbz9IQ1a-12" value="contener" style="rhombus;whiteSpace=wrap;html=1;" vertex="1" parent="1">
          <mxGeometry x="210" y="650" width="80" height="80" as="geometry" />
        </mxCell>
        <mxCell id="gxTbl_HWMmelDbz9IQ1a-14" value="&lt;font style=&quot;font-size: 18px;&quot;&gt;(N:M)&lt;/font&gt;" style="text;html=1;strokeColor=none;fillColor=none;align=center;verticalAlign=middle;whiteSpace=wrap;rounded=0;" vertex="1" parent="1">
          <mxGeometry x="250" y="630" width="60" height="30" as="geometry" />
        </mxCell>
        <mxCell id="gxTbl_HWMmelDbz9IQ1a-15" value="&lt;font style=&quot;font-size: 14px;&quot;&gt;(1,n)&lt;/font&gt;" style="text;html=1;strokeColor=none;fillColor=none;align=center;verticalAlign=middle;whiteSpace=wrap;rounded=0;" vertex="1" parent="1">
          <mxGeometry x="310" y="720" width="60" height="30" as="geometry" />
        </mxCell>
        <mxCell id="gxTbl_HWMmelDbz9IQ1a-16" value="&lt;font style=&quot;font-size: 14px;&quot;&gt;(1,n)&lt;/font&gt;" style="text;html=1;strokeColor=none;fillColor=none;align=center;verticalAlign=middle;whiteSpace=wrap;rounded=0;" vertex="1" parent="1">
          <mxGeometry x="150" y="570" width="60" height="30" as="geometry" />
        </mxCell>
        <mxCell id="gxTbl_HWMmelDbz9IQ1a-18" value="" style="endArrow=none;html=1;rounded=0;entryX=0;entryY=1;entryDx=0;entryDy=0;strokeWidth=2;" edge="1" parent="1" source="gxTbl_HWMmelDbz9IQ1a-17" target="gxTbl_HWMmelDbz9IQ1a-2">
          <mxGeometry width="50" height="50" relative="1" as="geometry">
            <mxPoint x="450" y="770" as="sourcePoint" />
            <mxPoint x="500" y="720" as="targetPoint" />
          </mxGeometry>
        </mxCell>
        <mxCell id="gxTbl_HWMmelDbz9IQ1a-19" value="" style="endArrow=none;html=1;rounded=0;entryX=0;entryY=1;entryDx=0;entryDy=0;exitX=0.95;exitY=-0.017;exitDx=0;exitDy=0;exitPerimeter=0;strokeWidth=2;" edge="1" parent="1" source="gxTbl_HWMmelDbz9IQ1a-1" target="gxTbl_HWMmelDbz9IQ1a-17">
          <mxGeometry width="50" height="50" relative="1" as="geometry">
            <mxPoint x="474" y="749" as="sourcePoint" />
            <mxPoint x="680" y="620" as="targetPoint" />
          </mxGeometry>
        </mxCell>
        <mxCell id="gxTbl_HWMmelDbz9IQ1a-17" value="Registrar" style="rhombus;whiteSpace=wrap;html=1;" vertex="1" parent="1">
          <mxGeometry x="530" y="640" width="80" height="80" as="geometry" />
        </mxCell>
        <mxCell id="gxTbl_HWMmelDbz9IQ1a-20" value="&lt;font style=&quot;font-size: 18px;&quot;&gt;(1:N)&lt;/font&gt;" style="text;html=1;strokeColor=none;fillColor=none;align=center;verticalAlign=middle;whiteSpace=wrap;rounded=0;" vertex="1" parent="1">
          <mxGeometry x="510" y="620" width="60" height="30" as="geometry" />
        </mxCell>
        <mxCell id="gxTbl_HWMmelDbz9IQ1a-21" value="&lt;font style=&quot;font-size: 14px;&quot;&gt;(1,n)&lt;/font&gt;" style="text;html=1;strokeColor=none;fillColor=none;align=center;verticalAlign=middle;whiteSpace=wrap;rounded=0;" vertex="1" parent="1">
          <mxGeometry x="620" y="590" width="60" height="30" as="geometry" />
        </mxCell>
        <mxCell id="gxTbl_HWMmelDbz9IQ1a-22" value="&lt;font style=&quot;font-size: 14px;&quot;&gt;(1,1)&lt;/font&gt;" style="text;html=1;strokeColor=none;fillColor=none;align=center;verticalAlign=middle;whiteSpace=wrap;rounded=0;" vertex="1" parent="1">
          <mxGeometry x="440" y="710" width="60" height="30" as="geometry" />
        </mxCell>
        <mxCell id="gxTbl_HWMmelDbz9IQ1a-23" value="" style="endArrow=none;html=1;rounded=0;entryX=0.4;entryY=1.05;entryDx=0;entryDy=0;entryPerimeter=0;exitX=0.5;exitY=0;exitDx=0;exitDy=0;" edge="1" parent="1" source="gxTbl_HWMmelDbz9IQ1a-1" target="gxTbl_HWMmelDbz9IQ1a-10">
          <mxGeometry width="50" height="50" relative="1" as="geometry">
            <mxPoint x="450" y="770" as="sourcePoint" />
            <mxPoint x="500" y="720" as="targetPoint" />
          </mxGeometry>
        </mxCell>
        <mxCell id="gxTbl_HWMmelDbz9IQ1a-24" value="" style="endArrow=none;html=1;rounded=0;entryX=0.617;entryY=1.025;entryDx=0;entryDy=0;entryPerimeter=0;exitX=0.5;exitY=0;exitDx=0;exitDy=0;" edge="1" parent="1" source="gxTbl_HWMmelDbz9IQ1a-2" target="gxTbl_HWMmelDbz9IQ1a-9">
          <mxGeometry width="50" height="50" relative="1" as="geometry">
            <mxPoint x="430" y="760" as="sourcePoint" />
            <mxPoint x="394" y="692" as="targetPoint" />
          </mxGeometry>
        </mxCell>
        <mxCell id="gxTbl_HWMmelDbz9IQ1a-25" value="" style="endArrow=none;html=1;rounded=0;entryX=1;entryY=1;entryDx=0;entryDy=0;" edge="1" parent="1" target="gxTbl_HWMmelDbz9IQ1a-1">
          <mxGeometry width="50" height="50" relative="1" as="geometry">
            <mxPoint x="510" y="870" as="sourcePoint" />
            <mxPoint x="687" y="501" as="targetPoint" />
          </mxGeometry>
        </mxCell>
        <mxCell id="gxTbl_HWMmelDbz9IQ1a-27" value="Fecha" style="ellipse;whiteSpace=wrap;html=1;" vertex="1" parent="1">
          <mxGeometry x="490" y="860" width="60" height="40" as="geometry" />
        </mxCell>
        <mxCell id="gxTbl_HWMmelDbz9IQ1a-28" value="" style="endArrow=none;html=1;rounded=0;entryX=0;entryY=1;entryDx=0;entryDy=0;exitX=0.95;exitY=0.05;exitDx=0;exitDy=0;exitPerimeter=0;" edge="1" parent="1" source="gxTbl_HWMmelDbz9IQ1a-3" target="gxTbl_HWMmelDbz9IQ1a-8">
          <mxGeometry width="50" height="50" relative="1" as="geometry">
            <mxPoint x="430" y="760" as="sourcePoint" />
            <mxPoint x="394" y="692" as="targetPoint" />
          </mxGeometry>
        </mxCell>
        <mxCell id="gxTbl_HWMmelDbz9IQ1a-29" value="" style="endArrow=none;html=1;rounded=0;entryX=0.5;entryY=1;entryDx=0;entryDy=0;exitX=0.618;exitY=-0.033;exitDx=0;exitDy=0;exitPerimeter=0;" edge="1" parent="1" source="gxTbl_HWMmelDbz9IQ1a-3" target="gxTbl_HWMmelDbz9IQ1a-6">
          <mxGeometry width="50" height="50" relative="1" as="geometry">
            <mxPoint x="154" y="573" as="sourcePoint" />
            <mxPoint x="169" y="534" as="targetPoint" />
          </mxGeometry>
        </mxCell>
        <mxCell id="gxTbl_HWMmelDbz9IQ1a-30" value="" style="endArrow=none;html=1;rounded=0;entryX=0.5;entryY=1;entryDx=0;entryDy=0;exitX=0.25;exitY=0;exitDx=0;exitDy=0;" edge="1" parent="1" source="gxTbl_HWMmelDbz9IQ1a-3" target="gxTbl_HWMmelDbz9IQ1a-7">
          <mxGeometry width="50" height="50" relative="1" as="geometry">
            <mxPoint x="114" y="568" as="sourcePoint" />
            <mxPoint x="120" y="470" as="targetPoint" />
          </mxGeometry>
        </mxCell>
        <mxCell id="gxTbl_HWMmelDbz9IQ1a-31" value="" style="endArrow=none;html=1;rounded=0;entryX=0.5;entryY=0;entryDx=0;entryDy=0;exitX=0.333;exitY=1.033;exitDx=0;exitDy=0;exitPerimeter=0;" edge="1" parent="1" source="gxTbl_HWMmelDbz9IQ1a-3" target="gxTbl_HWMmelDbz9IQ1a-4">
          <mxGeometry width="50" height="50" relative="1" as="geometry">
            <mxPoint x="70" y="570" as="sourcePoint" />
            <mxPoint x="60" y="540" as="targetPoint" />
          </mxGeometry>
        </mxCell>
      </root>
    </mxGraphModel>
  </diagram>
</mxfile>
